<svg width="53" height="56" viewBox="0 0 53 56" fill="none" xmlns="http://www.w3.org/2000/svg">
<path d="M12.6284 9.20064L11.7184 8.20448C10.8084 7.20832 9.33843 7.23386 8.45176 8.20448L8.42843 8.23002C7.51843 9.22619 7.51843 10.8354 8.42843 11.806L9.33843 12.8022C10.2484 13.7983 11.6951 13.7983 12.6051 12.8022L12.6284 12.7766C13.5384 11.806 13.5384 10.1713 12.6284 9.20064ZM5.53509 25.4458H3.15509C1.87176 25.4458 0.845093 26.5696 0.845093 27.9745V28C0.845093 29.4049 1.87176 30.5287 3.15509 30.5287H5.51176C6.81843 30.5543 7.84509 29.4304 7.84509 28.0256V28C7.84509 26.5696 6.81843 25.4458 5.53509 25.4458ZM26.5351 0.030838H26.5118C25.2051 0.030838 24.1784 1.15471 24.1784 2.55956V5.01165C24.1784 6.4165 25.2051 7.54037 26.4884 7.54037H26.5118C27.8184 7.56592 28.8451 6.44204 28.8451 5.03719V2.55956C28.8451 1.15471 27.8184 0.030838 26.5351 0.030838ZM44.5951 8.23002C43.6851 7.23386 42.2151 7.23386 41.3051 8.20448L40.3951 9.20064C39.4851 10.1968 39.4851 11.806 40.3951 12.7766L40.4184 12.8022C41.3284 13.7983 42.7984 13.7983 43.6851 12.8022L44.5951 11.806C45.5051 10.8098 45.5051 9.22619 44.5951 8.23002ZM40.3718 46.7994L41.2818 47.7956C42.1918 48.7917 43.6618 48.7917 44.5718 47.7956C45.4818 46.7994 45.4818 45.1902 44.5718 44.1941L43.6618 43.1979C42.7518 42.2017 41.2818 42.2273 40.3951 43.1979C39.4618 44.2196 39.4618 45.8032 40.3718 46.7994ZM45.1784 27.9745V28C45.1784 29.4049 46.2051 30.5287 47.4884 30.5287H49.8451C51.1284 30.5287 52.1551 29.4049 52.1551 28V27.9745C52.1551 26.5696 51.1284 25.4458 49.8451 25.4458H47.4884C46.2051 25.4458 45.1784 26.5696 45.1784 27.9745ZM26.5118 12.6744C18.7884 12.6744 12.5118 19.5454 12.5118 28C12.5118 36.4546 18.7884 43.3256 26.5118 43.3256C34.2351 43.3256 40.5118 36.4546 40.5118 28C40.5118 19.5454 34.2351 12.6744 26.5118 12.6744ZM26.4884 55.9692H26.5118C27.7951 55.9692 28.8218 54.8453 28.8218 53.4405V50.9884C28.8218 49.5835 27.7951 48.4597 26.5118 48.4597H26.4884C25.2051 48.4597 24.1784 49.5835 24.1784 50.9884V53.4405C24.1784 54.8453 25.2051 55.9692 26.4884 55.9692ZM8.42843 47.77C9.33843 48.7662 10.8084 48.7662 11.7184 47.77L12.6284 46.7739C13.5384 45.7777 13.5151 44.1685 12.6284 43.1979L12.6051 43.1723C11.6951 42.1762 10.2251 42.1762 9.31509 43.1723L8.40509 44.1685C7.51843 45.1902 7.51843 46.7739 8.42843 47.77Z" fill="white"/>
</svg>
